<svg width="16" height="16" viewBox="0 0 16 16" fill="none" xmlns="http://www.w3.org/2000/svg">
<path d="M12.2531 6.8378H14.0142C14.044 6.83771 14.0734 6.84546 14.0993 6.86029C14.1252 6.87513 14.147 6.89651 14.1619 6.9223C14.1771 6.9481 14.1849 6.97738 14.1851 7.00726C14.1853 7.03713 14.1776 7.06652 14.163 7.09248L10.9938 12.7154C10.9456 12.8011 10.8755 12.8724 10.7907 12.922C10.7058 12.9716 10.6094 12.9979 10.511 12.998H9.16279C9.05052 12.998 8.94081 12.9638 8.84843 12.9C8.75588 12.8362 8.68505 12.7457 8.64525 12.6407L8.31519 11.7734L8.33837 11.789C8.44389 11.8573 8.56218 11.9032 8.68614 11.9238C8.81028 11.9445 8.93716 11.9394 9.0591 11.909C9.18105 11.8785 9.29533 11.8233 9.39519 11.7469C9.49487 11.6704 9.57793 11.5742 9.6389 11.4644L11.5406 8.05896H10.0234C9.99087 8.05961 9.95892 8.05096 9.93117 8.03404C9.90343 8.0171 9.88097 7.9926 9.86673 7.96341C9.85249 7.93421 9.84684 7.90156 9.85049 7.86926C9.85414 7.83698 9.8671 7.80642 9.88754 7.78118L13.7004 3.03914C13.7198 3.0183 13.7457 3.00484 13.7738 3.00108C13.8021 2.99731 13.8306 3.00348 13.8547 3.01851C13.8788 3.03354 13.897 3.05649 13.906 3.08344C13.9149 3.11038 13.9144 3.13963 13.9042 3.16614L12.2531 6.8378Z" fill="#9DA1A7"/>
<path d="M6.06089 12.6578C6.06089 12.7024 6.05213 12.7465 6.03497 12.7877C6.01799 12.8289 5.99298 12.8664 5.9614 12.8979C5.93 12.9294 5.89239 12.9545 5.85132 12.9715C5.81006 12.9886 5.76588 12.9974 5.72134 12.9974H4.27531C4.2052 12.9974 4.13693 12.9757 4.0796 12.9353C4.02228 12.895 3.97902 12.8379 3.95547 12.7719L3.78368 12.2836L2.01982 7.29633C2.00138 7.24448 1.99572 7.18898 2.0032 7.13451C2.01087 7.08002 2.03132 7.02813 2.06308 6.98322C2.09485 6.9383 2.13684 6.90166 2.18576 6.87636C2.2345 6.85107 2.28872 6.83787 2.34367 6.83789H3.66484C3.75137 6.83784 3.83589 6.86449 3.90691 6.91418C3.97792 6.96389 4.03177 7.03423 4.06135 7.11567L5.94606 12.2774L6.04264 12.541C6.05542 12.5785 6.06162 12.6181 6.06089 12.6578Z" fill="#9DA1A7"/>
<path d="M7.52671 9.7092L6.44013 12.7805C6.41731 12.8446 6.37514 12.9 6.31964 12.9393C6.26414 12.9786 6.1977 12.9997 6.12978 12.9998H4.27483C4.20454 12.9997 4.13608 12.9777 4.07876 12.937C4.02144 12.8962 3.97817 12.8387 3.95499 12.7723L3.78247 12.284C3.81643 12.3397 4.09957 12.7743 4.45209 12.2779L6.26414 7.31442C6.26414 7.31442 6.48157 7.18265 6.61466 7.31442L7.52671 9.7092Z" fill="#9DA1A7"/>
<path d="M9.97809 10.8607L9.15841 12.3257C9.12482 12.3856 9.07498 12.4347 9.01455 12.4672C8.95394 12.4998 8.88549 12.5144 8.81703 12.5093C8.74857 12.5042 8.68285 12.4797 8.6279 12.4387C8.57295 12.3976 8.53078 12.3416 8.50632 12.2774L7.52763 9.70878L6.6488 7.39956C6.62982 7.3511 6.5944 7.31088 6.54858 7.28601C6.50294 7.26117 6.44981 7.25326 6.39888 7.26372C6.35123 7.27369 6.30523 7.29111 6.26306 7.31535C6.30797 7.18968 6.38756 7.07927 6.49253 6.99681C6.62069 6.8941 6.78006 6.83806 6.94418 6.83789H8.15599C8.28177 6.83762 8.40445 6.87614 8.5076 6.94821C8.61056 7.02028 8.68887 7.12241 8.73177 7.24065L9.99032 10.6868C10.0011 10.7149 10.0055 10.7451 10.0035 10.7751C10.0013 10.8051 9.99269 10.8343 9.97809 10.8607Z" fill="#9DA1A7"/>
</svg>
