<svg width="25" height="25" viewBox="0 0 25 25" fill="none" xmlns="http://www.w3.org/2000/svg">
    <path d="M13.5183 22.3798C13.5183 23.0703 13.5183 23.4155 13.6626 23.608C13.7883 23.7758 13.9807 23.8806 14.1898 23.8952C14.4297 23.912 14.7198 23.7248 15.3 23.3504L19.834 20.4241C20.993 19.6761 21.5725 19.3021 21.9925 18.8019C22.3643 18.359 22.6436 17.8463 22.8141 17.2938C23.0067 16.6697 23.0067 15.9799 23.0067 14.6004V9.85919C23.0067 9.17364 23.0067 8.83083 22.8633 8.6387C22.7383 8.47128 22.547 8.3662 22.3387 8.35057C22.0997 8.3326 21.8104 8.51649 21.2318 8.88427L14.0538 13.4467C13.8583 13.571 13.7605 13.6332 13.6896 13.7168C13.6268 13.7908 13.5796 13.8767 13.5508 13.9694C13.5183 14.074 13.5183 14.1899 13.5183 14.4216V22.3798Z" fill="#005E54"/>
    <path d="M3.54703 8.80653C2.97432 8.46274 2.68797 8.29085 2.45235 8.31278C2.2469 8.33185 2.05945 8.43797 1.93731 8.60428C1.79724 8.79505 1.79724 9.12904 1.79724 9.79695V14.484C1.79724 15.904 1.79724 16.614 1.99981 17.253C2.17908 17.8184 2.47258 18.341 2.8621 18.7884C3.30224 19.2939 3.90848 19.6634 5.12097 20.4025L10.0873 23.4297C10.6615 23.7797 10.9487 23.9547 11.1853 23.9339C11.3915 23.9156 11.58 23.8098 11.7028 23.6432C11.8438 23.4521 11.8438 23.1158 11.8438 22.4433V14.441C11.8438 14.2026 11.8438 14.0834 11.8095 13.9762C11.7793 13.8814 11.7297 13.7939 11.664 13.7191C11.5898 13.6346 11.4875 13.5733 11.2831 13.4505L3.54703 8.80653Z" fill="#005E54"/>
    <path d="M9.09487 2.66805C10.3982 1.88009 11.0498 1.48612 11.7461 1.33224C12.3619 1.19614 13 1.19614 13.6158 1.33224C14.3121 1.48611 14.9637 1.88009 16.267 2.66805L20.8007 5.40904C21.3442 5.73761 21.6159 5.90189 21.7076 6.11347C21.7876 6.29812 21.7868 6.50779 21.7056 6.69191C21.6126 6.90287 21.3397 7.06528 20.7941 7.39019L13.272 11.869C13.057 11.997 12.9495 12.061 12.8348 12.086C12.7335 12.1081 12.6284 12.1081 12.5271 12.086C12.4124 12.061 12.3049 11.997 12.0899 11.869L4.56785 7.39019C4.02219 7.06528 3.74936 6.90287 3.65629 6.69191C3.57505 6.50779 3.57434 6.29812 3.65434 6.11347C3.74599 5.90189 4.01772 5.73761 4.56118 5.40904L9.09487 2.66805Z" fill="#005E54"/>
</svg>