<?xml version="1.0" encoding="UTF-8"?><svg id="Laag_1" xmlns="http://www.w3.org/2000/svg" viewBox="0 0 1298.08 236.22"><defs><style>.cls-1{fill:#6b2fad;}</style></defs><path class="cls-1" d="m278.71,165.43v-94.17h27.48v10.8c4.75-8.29,16.85-13.6,27.1-13.6,13.41,0,23.1,5.5,27.85,14.81,7.36-10.62,16.49-14.81,29.16-14.81,17.78,0,34.83,10.44,34.83,36v61h-27.86v-54.62c0-8.94-4.75-15.92-15-15.92s-15.74,7.73-15.74,16.11v54.4h-28.4v-54.59c0-8.94-4.76-15.92-15.19-15.92s-15.55,7.73-15.55,16.3v54.21h-28.68Z"/><path class="cls-1" d="m460.98,25.62c9.31-.1,16.94,7.36,17.05,16.67.1,9.31-7.36,16.94-16.67,17.05s-16.94-7.36-17.05-16.67c0-.06,0-.13,0-.19.02-9.23,7.44-16.73,16.67-16.86m-14.27,45.64h28.8v94.17h-28.8v-94.17Z"/><path class="cls-1" d="m497.71,71.26h28.78v101c0,18.9-11.92,32-31.11,32-10.06,0-14.62-2-15.92-2.61v-23.86c2.79.78,5.67,1.16,8.57,1.12,6.61,0,9.68-3.82,9.68-9.68v-97.97Zm14.25-45.64c9.31-.1,16.94,7.36,17.05,16.67.1,9.31-7.36,16.94-16.67,17.05-9.31.1-16.94-7.36-17.05-16.67,0-.07,0-.13,0-.2-.04-9.25,7.42-16.79,16.67-16.85"/><path class="cls-1" d="m577.41,165.43h-28.78v-94.17h27.85v10.8c5.13-8.94,16.67-13.22,26.36-13.22,23.66,0,34.28,16.85,34.28,37.53v59.15h-28.78v-54.21c0-9.32-4.94-16.3-15.37-16.3-9.5,0-15.56,7-15.56,16.49v53.93Z"/><path class="cls-1" d="m752.34,148.57c0,8.57.56,14.81.75,16.86h-27.67c-.46-3.02-.71-6.07-.74-9.13-4.38,6.43-13.79,11.18-25.15,11.18-26.55,0-46.58-20.5-46.58-49.46s18.91-49.09,45.65-49.09c16.11,0,23.1,6,25.42,9.69V28.32h28.41v120.25h-.09Zm-49.27-6.78c11.17,0,21.23-7.92,21.23-23.47s-10.06-23.29-21.23-23.29-21.24,7.54-21.24,23.29,10.06,23.47,21.24,23.47"/><path class="cls-1" d="m868.96,118.3c0,29.15-21.8,50-50,50s-50-20.86-50-50,22-49.84,50-49.84,50,20.68,50,49.84m-28.78,0c0-15.93-10.25-23.29-21.24-23.29s-21.24,7.36-21.24,23.29,10.44,23.47,21.24,23.47,21.24-7.55,21.24-23.47"/><path class="cls-1" d="m885.63,165.43v-94.17h27.48v10.8c4.75-8.29,16.86-13.6,27.1-13.6,13.42,0,23.1,5.5,27.85,14.81,7.36-10.62,16.49-14.81,29.16-14.81,17.79,0,34.84,10.44,34.84,36v61h-27.86v-54.62c0-8.94-4.75-15.92-15-15.92s-15.74,7.73-15.74,16.11v54.4h-28.4v-54.59c0-8.94-4.75-15.92-15.18-15.92s-15.56,7.73-15.56,16.3v54.21h-28.69Z"/><path class="cls-1" d="m1140.47,138.32c-4.56,16.3-19.46,29.9-43.4,29.9-26,0-49.09-18.53-49.09-50.2s22.54-49.65,47-49.65c29.15,0,47.13,18,47.13,48.34.03,2.99-.16,5.98-.56,8.94h-65.57c.55,10.62,10.24,18.17,21.42,18.17,10.43,0,16.3-4.94,18.91-12.3l24.16,6.8Zm-26.17-31.2c-.37-7.17-5.31-15.93-18.91-15.93-12.11,0-18.16,8.94-18.72,15.93h37.63Z"/><path class="cls-1" d="m1172.89,25.62c9.31-.1,16.94,7.36,17.05,16.67.1,9.31-7.36,16.94-16.67,17.05-9.31.1-16.94-7.36-17.05-16.67,0-.06,0-.13,0-.19.02-9.23,7.44-16.73,16.67-16.86m-14.25,45.64h28.78v94.17h-28.78v-94.17Z"/><path class="cls-1" d="m1238.37,165.43h-28.78v-94.17h27.85v10.8c5.12-8.94,16.67-13.22,26.36-13.22,23.66,0,34.28,16.85,34.28,37.53v59.15h-28.78v-54.21c0-9.32-4.94-16.3-15.37-16.3-9.5,0-15.56,7-15.56,16.49v53.93Z"/><path class="cls-1" d="m118.12,165.33c-26.08,0-47.22-21.14-47.22-47.22s21.14-47.22,47.22-47.22,47.22,21.14,47.22,47.22h0c0,26.08-21.14,47.22-47.22,47.22M118.12,0C52.89,0,0,52.87,0,118.1c0,65.23,52.87,118.11,118.1,118.12,65.23,0,118.11-52.87,118.12-118.1h0C236.13,53,183.22,0,118.12,0"/></svg>